<svg xmlns="http://www.w3.org/2000/svg" viewBox="0 0 136.99421 119.0791"><defs><style>.cls-1{fill:#fff;}.cls-2{fill:none;stroke:#fff;stroke-linecap:round;stroke-linejoin:round;stroke-width:5.042px;}.cls-3{fill:#007bc0;}.cls-4{fill:#aec9e7;}</style></defs><title>logo-blanco</title><g id="Layer_2" data-name="Layer 2"><g id="Layer_1-2" data-name="Layer 1"><path class="cls-1" d="M130.77961,71.7237h-.737v-1.152h.693a1.89837,1.89837,0,0,1,.61.066.5888.5888,0,0,1,.258.201.55251.55251,0,0,1-.1.724,1.17115,1.17115,0,0,1-.724.161m.805.643a1.07432,1.07432,0,0,0-.32-.203,1.16213,1.16213,0,0,0,.782-.345,1.02592,1.02592,0,0,0,.295-.73.97131.97131,0,0,0-.179-.559.92351.92351,0,0,0-.473-.368,3.06775,3.06775,0,0,0-.96-.106h-1.297v3.814h.61v-1.62h.356a.77353.77353,0,0,1,.49.131,3.1285,3.1285,0,0,1,.635.888l.333.601h.744l-.46-.746a4.37817,4.37817,0,0,0-.556-.757"/><path class="cls-2" d="M130.77961,71.7237h-.737v-1.152h.693a1.89837,1.89837,0,0,1,.61.066.5888.5888,0,0,1,.258.201.55251.55251,0,0,1-.1.724A1.17115,1.17115,0,0,1,130.77961,71.7237Zm.805.643a1.07432,1.07432,0,0,0-.32-.203,1.16213,1.16213,0,0,0,.782-.345,1.02592,1.02592,0,0,0,.295-.73.97131.97131,0,0,0-.179-.559.92351.92351,0,0,0-.473-.368,3.06775,3.06775,0,0,0-.96-.106h-1.297v3.814h.61v-1.62h.356a.77353.77353,0,0,1,.49.131,3.1285,3.1285,0,0,1,.635.888l.333.601h.744l-.46-.746A4.37817,4.37817,0,0,0,131.58463,72.36669Z"/><path class="cls-1" d="M133.50821,73.37731a2.76084,2.76084,0,0,1-1.083,1.097,2.91384,2.91384,0,0,1-2.909,0,2.78045,2.78045,0,0,1-1.083-1.097,2.98,2.98,0,0,1-.386-1.467,3.02339,3.02339,0,0,1,.392-1.481,2.75473,2.75473,0,0,1,1.094-1.094,2.877,2.877,0,0,1,2.872,0,2.71723,2.71723,0,0,1,1.094,1.094,2.99733,2.99733,0,0,1,.009,2.948m.495-3.243a3.25005,3.25005,0,0,0-1.308-1.311,3.46344,3.46344,0,0,0-3.446,0,3.26442,3.26442,0,0,0-1.314,1.311,3.584,3.584,0,0,0-.006,3.538,3.28157,3.28157,0,0,0,1.298,1.311,3.48812,3.48812,0,0,0,3.487,0,3.267,3.267,0,0,0,1.297-1.311,3.591,3.591,0,0,0-.008-3.538"/><path class="cls-2" d="M133.50821,73.37731a2.76084,2.76084,0,0,1-1.083,1.097,2.91384,2.91384,0,0,1-2.909,0,2.78045,2.78045,0,0,1-1.083-1.097,2.98,2.98,0,0,1-.386-1.467,3.02339,3.02339,0,0,1,.392-1.481,2.75473,2.75473,0,0,1,1.094-1.094,2.877,2.877,0,0,1,2.872,0,2.71723,2.71723,0,0,1,1.094,1.094,2.99733,2.99733,0,0,1,.009,2.948Zm.495-3.243a3.25005,3.25005,0,0,0-1.308-1.311,3.46344,3.46344,0,0,0-3.446,0,3.26442,3.26442,0,0,0-1.314,1.311,3.584,3.584,0,0,0-.006,3.538,3.28157,3.28157,0,0,0,1.298,1.311,3.48812,3.48812,0,0,0,3.487,0,3.267,3.267,0,0,0,1.297-1.311,3.591,3.591,0,0,0-.008-3.538Z"/><path class="cls-1" d="M120.74,54.146H105.008a91.3598,91.3598,0,0,0-5.033-12.438C86.999,15.774,71.413,5.891,64.452,2.521c-6.961,3.37-22.556,13.253-35.531,39.187A91.33443,91.33443,0,0,0,23.89,54.146H2.521V74.421H19.795c-.218,2.585-.28,4.721-.28,6.284,8.112,4.014,23.966,12.68,44.937,12.68,20.963,0,36.812-8.666,44.928-12.68,0-1.563-.06-3.699-.279-6.284h10.716s.31,0,.564-.016c.184-.012.49-.07.49-.07a6.37415,6.37415,0,0,0,5.059-5.068,17.04068,17.04068,0,0,0,.44-4.854,25.34885,25.34885,0,0,0-.218-4.392c-.574-3.218-2.234-5.875-5.412-5.875"/><path class="cls-2" d="M120.74,54.146H105.008a91.3598,91.3598,0,0,0-5.033-12.438C86.999,15.774,71.413,5.891,64.452,2.521c-6.961,3.37-22.556,13.253-35.531,39.187A91.33443,91.33443,0,0,0,23.89,54.146H2.521V74.421H19.795c-.218,2.585-.28,4.721-.28,6.284,8.112,4.014,23.966,12.68,44.937,12.68,20.963,0,36.812-8.666,44.928-12.68,0-1.563-.06-3.699-.279-6.284h10.716s.31,0,.564-.016c.184-.012.49-.07.49-.07a6.37415,6.37415,0,0,0,5.059-5.068,17.04068,17.04068,0,0,0,.44-4.854,25.34885,25.34885,0,0,0-.218-4.392C125.578,56.803,123.918,54.146,120.74,54.146Z"/><path class="cls-3" d="M130.04282,71.7233h.737a1.16424,1.16424,0,0,0,.724-.161.55119.55119,0,0,0,.1-.723.57226.57226,0,0,0-.259-.201,1.86171,1.86171,0,0,0-.61-.066h-.692Zm-.61,2.147v-3.814h1.297a3.07251,3.07251,0,0,1,.96.106.92251.92251,0,0,1,.473.368.96927.96927,0,0,1,.179.559,1.0246,1.0246,0,0,1-.296.729,1.158,1.158,0,0,1-.782.345,1.08616,1.08616,0,0,1,.321.203,4.41759,4.41759,0,0,1,.556.757l.46.747h-.744l-.334-.602a3.10644,3.10644,0,0,0-.634-.887.76728.76728,0,0,0-.49-.132h-.356v1.621Zm1.539-4.919a2.96276,2.96276,0,0,0-1.439.384,2.76769,2.76769,0,0,0-1.094,1.094,3.03432,3.03432,0,0,0-.392,1.481,2.981,2.981,0,0,0,.387,1.467,2.76713,2.76713,0,0,0,1.083,1.097,2.9118,2.9118,0,0,0,2.908,0,2.76062,2.76062,0,0,0,1.083-1.097,2.99392,2.99392,0,0,0-.008-2.948,2.7299,2.7299,0,0,0-1.094-1.094,2.95846,2.95846,0,0,0-1.434-.384m0-.587a3.55991,3.55991,0,0,1,1.723.459,3.23767,3.23767,0,0,1,1.308,1.311,3.58739,3.58739,0,0,1,.009,3.538,3.26648,3.26648,0,0,1-1.297,1.311,3.48991,3.48991,0,0,1-3.488,0,3.29465,3.29465,0,0,1-1.298-1.311,3.58408,3.58408,0,0,1,.006-3.538,3.26442,3.26442,0,0,1,1.314-1.311,3.54561,3.54561,0,0,1,1.723-.459"/><path class="cls-3" d="M64.45194,93.3853c-20.971,0-36.824-8.667-44.936-12.68a90.79916,90.79916,0,0,1,9.405-38.997c12.976-25.935,28.57-35.818,35.531-39.187,6.961,3.369,22.547,13.252,35.523,39.187a90.73775,90.73775,0,0,1,9.405,38.997c-8.116,4.013-23.965,12.68-44.928,12.68"/><path class="cls-4" d="M73.83393,18.53859a1.3139,1.3139,0,0,0-1.532.165,1.35359,1.35359,0,0,0-.352,1.521l.461,1.139a8.2944,8.2944,0,0,1,.582,3.025,8.03157,8.03157,0,0,1-6.621,7.921v-8.125a1.33358,1.33358,0,1,0-2.667,0v8.125a8.079,8.079,0,0,1-6.036-10.946l.461-1.139a1.36658,1.36658,0,0,0-.356-1.521,1.31912,1.31912,0,0,0-1.535-.165l-15.874,9.001c-1.516,2.106-2.947,4.294-4.289,6.527,4.915-2.787,14.673-8.321,17.507-9.934-.004.083-.025.174-.025.256a11.58745,11.58745,0,0,0,10.147,11.529v12.312c-.748-.578-1.448-1.108-2.083-1.582-3.136-2.347-4.515-3.452-4.563-4.94a.95009.95009,0,0,1,.433-.945,3.05008,3.05008,0,0,1,2.166-.237,1.30654,1.30654,0,0,0,1.544.218,1.345,1.345,0,0,0,.546-1.824c-.683-1.306-3.027-1.375-4.394-1.001a3.74633,3.74633,0,0,0-2.959,3.878c.085,2.852,2.288,4.504,5.631,7.015.869.65,1.852,1.393,2.931,2.248-5.805,5.008-4.059,12.079-2.32,15.112a1.32952,1.32952,0,0,0,1.822.491,1.36679,1.36679,0,0,0,.498-1.84c-.154-.26-3.339-6.063.748-10.738v9.201a1.33355,1.33355,0,1,0,2.667,0v-9.261c4.18,4.687.954,10.538.808,10.798a1.36064,1.36064,0,0,0,.49,1.84,1.32949,1.32949,0,0,0,1.822-.491c1.739-3.033,3.473-10.104-2.312-15.112,1.076-.855,2.054-1.598,2.919-2.248,3.339-2.511,5.554-4.163,5.635-7.024a3.74359,3.74359,0,0,0-2.955-3.869c-1.366-.374-3.711-.305-4.394,1.001a1.34062,1.34062,0,0,0,.533,1.824,1.327,1.327,0,0,0,1.557-.218,3.05149,3.05149,0,0,1,2.166.237.96283.96283,0,0,1,.429.945c-.044,1.488-1.427,2.593-4.56,4.94-.647.483-1.366,1.022-2.138,1.617v-12.347a11.58075,11.58075,0,0,0,10.146-11.529c0-.082-.016-.173-.016-.256,2.619,1.488,11.164,6.338,16.318,9.265-1.407-2.282-2.89-4.501-4.454-6.621Z"/><path class="cls-1" d="M105.322,78.37839c-7.749,3.883-22.187,11.112-40.87,11.112-18.691,0-33.126-7.229-40.882-11.112l-.146-.077.004-.169a87.68029,87.68029,0,0,1,8.945-34.676c11.444-22.893,24.929-32.683,31.954-36.483l.125-.069.121.069c7.022,3.8,20.506,13.598,31.962,36.501a87.8252,87.8252,0,0,1,8.941,34.658v.169Zm-7.247-35.686c-11.739-23.459-25.636-33.476-32.871-37.354,0,0-.57-.303-.752-.4-.239.127-.756.4-.756.4-7.239,3.878-21.129,13.887-32.863,37.336a89.43344,89.43344,0,0,0-9.135,35.636l-.037,1.05c.291.154.938.465.938.465,7.951,3.988,22.754,11.406,41.853,11.406,19.091,0,33.906-7.418,41.856-11.406,0,0,.708-.351.93-.465-.012-.256-.044-1.05-.044-1.05a89.20172,89.20172,0,0,0-9.119-35.618"/><path class="cls-3" d="M125.43192,60.15039a5.81907,5.81907,0,0,0-5.344-5.194h-.012c-.084-.014-.173-.027-.259-.035v-.036H3.25391v18.798h116.563v-.068c2.867-.435,4.77-2.031,5.409-4.54a16.44382,16.44382,0,0,0,.413-4.66,24.90819,24.90819,0,0,0-.207-4.265"/><path class="cls-3" d="M3.98142,55.6232v17.321l115.731-.061c2.579-.39,4.24-1.772,4.806-3.994a15.81719,15.81719,0,0,0,.393-4.476,24.05239,24.05239,0,0,0-.195-4.123,5.10466,5.10466,0,0,0-4.745-4.606l-.695-.061Zm-1.46,18.798V54.1462h118.219c3.177,0,4.837,2.657,5.412,5.875a25.38428,25.38428,0,0,1,.217,4.392,17.00391,17.00391,0,0,1-.44,4.854,6.37423,6.37423,0,0,1-5.058,5.068s-.306.058-.49.07c-.254.016-.564.016-.564.016Z"/><path class="cls-1" d="M17.044,62.78629a2.9552,2.9552,0,0,0,1.52-.206,1.23776,1.23776,0,0,0,.568-1.127,1.27076,1.27076,0,0,0-.841-1.287,5.27928,5.27928,0,0,0-1.361-.091H9.303v2.711Zm.498,5.809a3.58459,3.58459,0,0,0,1.454-.136,1.23947,1.23947,0,0,0,.681-1.242,1.27311,1.27311,0,0,0-.818-1.331,4.94562,4.94562,0,0,0-1.43-.094H9.303v2.803ZM4.808,56.67629H18.475a7.13875,7.13875,0,0,1,3.585.599c1.136.643,1.637,1.675,1.637,3.421a3.44927,3.44927,0,0,1-.977,2.825,3.82414,3.82414,0,0,1-1.999.712,4.45232,4.45232,0,0,1,2.589.735,3.41682,3.41682,0,0,1,.999,2.823c0,1.859-.612,3.122-1.84,3.721a7.882,7.882,0,0,1-3.359.482H4.808Z"/><rect class="cls-1" x="26.83863" y="56.67589" width="4.60699" height="15.31799"/><path class="cls-1" d="M39.74332,60.6037c-.885.39-1.136,1.172-1.136,3.63,0,3.971.251,4.178,5.019,4.178,3.519,0,4.451-.07,5.13-.32,1.022-.415,1.272-1.172,1.272-3.952,0-2.25-.181-3.029-.84-3.422-.658-.39-1.431-.459-4.994-.459-2.839,0-3.792.069-4.451.345m10.761-3.88c2.386.39,3.521,1.492,3.928,3.81a23.49669,23.49669,0,0,1,.183,3.928,14.5157,14.5157,0,0,1-.365,4.225c-.498,1.976-2.087,3.124-4.584,3.329-1.158.092-2.975.14-5.542.14-5.243,0-6.538-.117-7.83-.735a4.20016,4.20016,0,0,1-2.182-3.424,25.75828,25.75828,0,0,1-.159-3.627c0-3.076.07-3.788.502-4.938.567-1.584,2.043-2.502,4.358-2.73a38.90363,38.90363,0,0,1,5.016-.184,49.454,49.454,0,0,1,6.675.206"/><polygon class="cls-1" points="59.994 68.481 71.437 60.145 60.289 60.145 60.289 56.676 78.178 56.676 78.178 60.192 66.599 68.525 78.359 68.525 78.359 71.994 59.994 71.994 59.994 68.481"/><path class="cls-1" d="M85.97141,60.6037c-.885.39-1.135,1.172-1.135,3.63,0,3.971.25,4.178,5.018,4.178,3.518,0,4.451-.07,5.13-.32,1.021-.415,1.272-1.172,1.272-3.952,0-2.25-.181-3.029-.841-3.422-.656-.39-1.43-.459-4.993-.459-2.839,0-3.791.069-4.451.345m10.761-3.88c2.385.39,3.521,1.492,3.928,3.81a23.49668,23.49668,0,0,1,.183,3.928,14.56119,14.56119,0,0,1-.364,4.225c-.499,1.976-2.088,3.124-4.585,3.329-1.158.092-2.976.14-5.542.14-5.244,0-6.538-.117-7.83-.735a4.20016,4.20016,0,0,1-2.182-3.424,25.80812,25.80812,0,0,1-.158-3.627c0-3.076.069-3.788.501-4.938.567-1.584,2.043-2.502,4.358-2.73a38.91251,38.91251,0,0,1,5.016-.184,49.44375,49.44375,0,0,1,6.675.206"/><path class="cls-1" d="M108.8656,60.6037c-.885.39-1.136,1.172-1.136,3.63,0,3.971.251,4.178,5.019,4.178,3.518,0,4.451-.07,5.13-.32,1.022-.415,1.272-1.172,1.272-3.952,0-2.25-.181-3.029-.841-3.422-.657-.39-1.43-.459-4.993-.459-2.84,0-3.792.069-4.451.345m10.761-3.88c2.385.39,3.521,1.492,3.928,3.81a23.4967,23.4967,0,0,1,.183,3.928,14.5157,14.5157,0,0,1-.365,4.225c-.498,1.976-2.087,3.124-4.584,3.329-1.158.092-2.975.14-5.542.14-5.244,0-6.538-.117-7.833-.735a4.19519,4.19519,0,0,1-2.176-3.424,25.19117,25.19117,0,0,1-.161-3.627c0-3.076.069-3.788.501-4.938.567-1.584,2.043-2.502,4.358-2.73a38.90363,38.90363,0,0,1,5.016-.184,49.454,49.454,0,0,1,6.675.206"/><polygon class="cls-1" points="11.865 113.12 11.865 115.301 7.61 115.301 7.61 116.586 12.234 116.586 12.234 118.825 4.92 118.825 4.92 109.704 12.17 109.704 12.17 111.943 7.61 111.943 7.61 113.12 11.865 113.12"/><path class="cls-1" d="M21.108,112.18409a6.163,6.163,0,0,0-2.468-.496c-.591,0-1.107.172-1.107.649,0,.49.522.63,1.336.801,2.321.49,3.682,1.196,3.682,3.002,0,2.182-1.831,2.939-4.102,2.939a6.25267,6.25267,0,0,1-3.873-1.177l1.215-1.813a4.78858,4.78858,0,0,0,2.531.751c.903,0,1.514-.108,1.514-.7,0-.477-.573-.636-1.489-.82-2.435-.509-3.529-1.508-3.529-2.983,0-1.59,1.068-2.888,3.695-2.888a7.19493,7.19493,0,0,1,3.81.923Z"/><polygon class="cls-1" points="33.296 109.704 33.296 111.943 30.313 111.943 30.313 118.824 27.623 118.824 27.623 111.943 24.64 111.943 24.64 109.704 33.296 109.704"/><path class="cls-1" d="M37.80722,115.3013h1.78l-.89-2.296Zm1.265-8.218h2.881l-1.997,1.972h-2.48Zm-2.633,11.741h-2.837l3.734-9.12h2.722l3.733,9.12h-2.836l-.573-1.476h-3.371Z"/><path class="cls-1" d="M56.16544,116.83989a4.208,4.208,0,0,0,2.62-.801l1.304,1.73a5.41561,5.41561,0,0,1-3.924,1.31c-3.409,0-4.999-2.15-4.999-4.815s1.59-4.814,4.999-4.814a5.41561,5.41561,0,0,1,3.924,1.31l-1.304,1.73a4.201,4.201,0,0,0-2.62-.802,2.59466,2.59466,0,0,0,0,5.152"/><path class="cls-1" d="M64.6445,114.26419a2.30011,2.30011,0,1,0,2.284-2.576,2.27553,2.27553,0,0,0-2.284,2.576m7.283,0c0,2.665-1.59,4.814-4.999,4.814s-4.999-2.149-4.999-4.814,1.59-4.815,4.999-4.815,4.999,2.15,4.999,4.815"/><polygon class="cls-1" points="74.524 109.704 77.672 109.704 80.693 114.837 80.693 109.704 83.384 109.704 83.384 118.824 80.235 118.824 77.214 113.692 77.214 118.824 74.524 118.824 74.524 109.704"/><polygon class="cls-1" points="94.51 109.704 94.51 111.943 91.527 111.943 91.527 118.824 88.837 118.824 88.837 111.943 85.854 111.943 85.854 109.704 94.51 109.704"/><rect class="cls-1" x="96.97962" y="109.70389" width="2.69" height="9.12"/><path class="cls-1" d="M111.28522,110.6324l-1.278,1.705a5.50745,5.50745,0,0,0-2.742-.649,2.5948,2.5948,0,0,0,0,5.152,3.33985,3.33985,0,0,0,1.463-.274v-1.291h-1.59v-1.991h3.982v4.72a6.09946,6.09946,0,0,1-3.855,1.074c-3.409,0-4.999-2.149-4.999-4.814s1.59-4.815,4.999-4.815a6.38408,6.38408,0,0,1,4.02,1.183"/><path class="cls-1" d="M116.4701,114.26419a2.30011,2.30011,0,1,0,2.284-2.576,2.27553,2.27553,0,0,0-2.284,2.576m7.283,0c0,2.665-1.59,4.814-4.999,4.814s-4.999-2.149-4.999-4.814,1.59-4.815,4.999-4.815,4.999,2.15,4.999,4.815"/></g></g></svg>